<svg xmlns="http://www.w3.org/2000/svg" id="prefix__lurssen_logo" width="320" height="66.448" viewBox="0 0 320 66.448">
    <path id="prefix__Path_1" d="M0 73.7h320v1.731H0z" data-name="Path 1" transform="translate(0 -8.983)" style="fill:#009086"/>
    <path id="prefix__Path_2" d="M52.5 19.155h14.1v1.655c-1.175 0-3.778-.174-3.778 3.047V51.11c0 1.567.839 4.353 3.946 4.353h4.281c4.281 0 6.632-2.09 8.479-7.314.756.348.923.348 1.511.609-.42 1.654-1.931 7.662-2.267 8.968H52.836V56.16c.923 0 3.946.261 3.946-3.4V23.422c0-1.654-1.679-2.612-4.113-2.612a6.477 6.477 0 0 1-.169-1.655zm50.873 0v1.567h1.343a3 3 0 0 1 2.684 3.048v22.9c0 5.66-3.526 9.578-8.815 9.578-7.3 0-8.815-6.966-8.815-8.968V22.812A2.1 2.1 0 0 1 91.7 20.9h1.427v-1.745h-13.6V20.9h1.683c.756 0 2.267.958 2.267 3.57v23.07c0 2.786 1.6 11.406 13.432 11.406s13.6-9.229 13.6-12.451V23.509a2.523 2.523 0 0 1 2.267-2.786h.839v-1.568h-10.242zm40.127 9.926c0 5.4-2.518 6.878-3.61 7.749a25.612 25.612 0 0 1-3.442 2.09 62.974 62.974 0 0 0 9.99 15.324c1.679 1.828 2.77 1.828 3.61 1.828h.756v1.568h-10.242c-4.869-5.66-9.486-15.063-11-17.414h-3.19v12.19c0 2.96 1.931 3.657 2.518 3.657h1.763v1.741H115.8v-1.741h1.847a2.8 2.8 0 0 0 2.518-2.873V24.554c0-2.612-1.6-3.57-2.518-3.57h-2.183v-1.742h18.385c5.2-.087 9.654 3.744 9.654 9.839zm-15.027 9.4c2.015 0 8.479-.958 8.479-8.446 0-6.878-4.7-8.707-6.968-8.707h-1.847c-.168 0-1.847.087-1.847 1.219V38.4a11.055 11.055 0 0 0 2.183.087zm84.62 13.5V38.572h7.639c3.19 0 3.274 3.744 3.274 4.7h1.343V31.519h-1.6v1.741a2.743 2.743 0 0 1-3.022 2.96h-7.639V21.332h9.4c3.862 0 4.617 4.353 4.869 5.66h1.511c-.084-.348-.336-6.443-.5-7.836h-25.94V20.9h2.272c.756 0 2.267.958 2.267 3.57V52.5c0 2.612-1.679 3.57-2.434 3.57H202.6v1.654h27.451c.336-1.306 2.015-7.923 2.267-8.968-.5-.261-.672-.348-1.259-.609-.588 1.393-2.1 7.227-7.807 7.227h-6.3a3.884 3.884 0 0 1-3.858-3.394zm50.621-6.53V23.6a2.833 2.833 0 0 0-2.854-2.786h-1.93v-1.572h12.676v1.48h-1.343c-1.343 0-3.358.784-3.358 2.873v35.09h-1.679c-2.938-3.744-21.491-27.862-23.674-30.648v24.9a3.39 3.39 0 0 0 3.106 3.309h1.847v1.567h-12.592v-1.566h1.427a3.232 3.232 0 0 0 3.022-3.134V24.292c0-2.177-1.343-3.222-2.351-3.222h-2.351v-1.741h9.654c2.183 2.612 17.209 21.941 20.4 26.121zm-65.228-25.6v7.489h-1.259c-.168-2.438-1.679-7.227-6.3-7.227-3.778 0-6.464 2.786-6.464 6.966s2.6 5.834 8.311 9.578c5.709 3.657 7.387 5.921 7.387 10.884s-3.526 11.145-12.34 11.145a18.324 18.324 0 0 1-9.57-2.873c-.252-1.654-.756-7.488-.756-8.1h1.6c.252 1.48 1.763 8.881 8.563 8.968a6.813 6.813 0 0 0 7.052-6.791 6.6 6.6 0 0 0-3.106-5.747c-1.931-1.393-9.066-5.66-10.41-7.836s-2.183-3.4-2.183-6.53 2.015-11.493 11.753-11.493a22.146 22.146 0 0 1 7.723 1.567zm-26.612 0v7.489h-1.259c-.168-2.438-1.679-7.227-6.3-7.227-3.778 0-6.464 2.786-6.464 6.966s2.6 5.834 8.311 9.578c5.709 3.657 7.387 5.921 7.387 10.884s-3.526 11.145-12.34 11.145a18.323 18.323 0 0 1-9.57-2.873c-.252-1.654-.756-7.488-.756-8.1h1.6c.252 1.48 1.763 8.881 8.563 8.968a6.813 6.813 0 0 0 7.052-6.791 6.6 6.6 0 0 0-3.106-5.747c-1.931-1.393-9.066-5.66-10.41-7.836s-2.183-3.4-2.183-6.53 2.015-11.493 11.753-11.493a22.146 22.146 0 0 1 7.723 1.567zm-67.831-8.881V6.008l-.756-.784L105.64 0l2.267 5.224-.672.784V14.8h-18.3V6.008l-.756-.784L90.529 0 92.8 5.224l-.672.784v4.963h4.365V6.008l-.756-.784L98.084 0l2.267 5.224-.672.784v4.963z" data-name="Path 2" transform="translate(-2.005)" style="fill:#0f1319"/>
</svg>
